<svg width="21" height="16" viewBox="0 0 21 16" fill="none" xmlns="http://www.w3.org/2000/svg">
<path d="M11.7933 1.19841C12.0439 1.43891 12.0666 1.81525 11.8616 2.08045L11.7933 2.15643L5.70447 8L11.7933 13.8436C12.0439 14.0841 12.0666 14.4604 11.8616 14.7256L11.7933 14.8016C11.5426 15.0421 11.1505 15.064 10.8742 14.8672L10.795 14.8016L4.20675 8.47901C3.95614 8.23851 3.93336 7.86217 4.1384 7.59697L4.20675 7.52099L10.795 1.19841C11.0706 0.933863 11.5176 0.933863 11.7933 1.19841Z" fill="white"/>
<path d="M16.7933 1.19841C17.0439 1.43891 17.0666 1.81525 16.8616 2.08045L16.7933 2.15643L10.7045 8L16.7933 13.8436C17.0439 14.0841 17.0666 14.4604 16.8616 14.7256L16.7933 14.8016C16.5426 15.0421 16.1505 15.064 15.8742 14.8672L15.795 14.8016L9.20675 8.47901C8.95614 8.23851 8.93336 7.86217 9.1384 7.59697L9.20675 7.52099L15.795 1.19841C16.0706 0.933863 16.5176 0.933863 16.7933 1.19841Z" fill="white"/>
</svg>
