<svg width="21" height="16" viewBox="0 0 21 16" fill="none" xmlns="http://www.w3.org/2000/svg">
<path d="M9.20675 14.8016C8.95614 14.5611 8.93336 14.1847 9.1384 13.9196L9.20675 13.8436L15.2955 8L9.20675 2.15643C8.95614 1.91593 8.93336 1.53959 9.1384 1.27439L9.20675 1.19841C9.45735 0.957913 9.84951 0.936049 10.1258 1.13282L10.205 1.19841L16.7933 7.52099C17.0439 7.76149 17.0666 8.13783 16.8616 8.40303L16.7933 8.47901L10.205 14.8016C9.92935 15.0661 9.48241 15.0661 9.20675 14.8016Z" fill="white"/>
<path d="M4.20675 14.8016C3.95614 14.5611 3.93336 14.1847 4.1384 13.9196L4.20675 13.8436L10.2955 8L4.20675 2.15643C3.95614 1.91593 3.93336 1.53959 4.1384 1.27439L4.20675 1.19841C4.45735 0.957914 4.84951 0.93605 5.12585 1.13282L5.20502 1.19841L11.7933 7.52099C12.0439 7.76149 12.0666 8.13783 11.8616 8.40303L11.7933 8.47901L5.20502 14.8016C4.92935 15.0661 4.48241 15.0661 4.20675 14.8016Z" fill="white"/>
</svg>
